# xmcd
#
# Track frame offsets: 
#        150
#        12032
#        26154
#        40839
#        56112
#        69391
#        82561
#        96185
#        113425
#        126979
#        138999
#        152384
#
# Disc length: 2264 seconds
#
# Revision: 0
# Processed by: cddbd v1.5.2PL0 Copyright (c) Steve Scherf et al.
# Submitted via: ExactAudioCopy v0.99pb5
#
DISCID=8a08d60c
DTITLE=Tony Booth - The Other Side Of Love
DYEAR=2010
DGENRE=Country
TTITLE0=Don't Call Me From A Honky Tonk
TTITLE1=All That She Could Take
TTITLE2=An Eye For An Eye
TTITLE3=Perfect Place
TTITLE4=Twice The Speed Of Love
TTITLE5=I Don't Know How To Tell Her
TTITLE6=It's All Your Fault
TTITLE7=I'm Not The One
TTITLE8=Sometimes I Talk In My Sleep
TTITLE9=Heartache Remover
TTITLE10=Kickin' In
TTITLE11=Blue Spanish Eyes
EXTD=
EXTT0=
EXTT1=
EXTT2=
EXTT3=
EXTT4=
EXTT5=
EXTT6=
EXTT7=
EXTT8=
EXTT9=
EXTT10=
EXTT11=
PLAYORDER=
